<svg width="146" height="117" viewBox="0 0 146 117" fill="none" xmlns="http://www.w3.org/2000/svg">
<path d="M0 18.1988C0 8.14789 8.14789 0 18.1988 0H127.416C137.467 0 145.615 8.14789 145.615 18.1988V75.642C145.615 85.693 137.467 93.8408 127.416 93.8408H105.416C102.705 93.8408 100.027 94.4467 97.5803 95.6141L54.311 116.255C53.984 116.411 53.6263 116.492 53.264 116.492V116.492C51.1103 116.492 50.0196 113.899 51.5256 112.36L66.3215 97.2351C67.5586 95.9706 66.6627 93.8408 64.8937 93.8408V93.8408H18.1988C8.14789 93.8408 0 85.693 0 75.642V18.1988Z" fill="#F0ACB9"/>
</svg>
