<svg width="126" height="91" viewBox="0 0 126 91" fill="none" xmlns="http://www.w3.org/2000/svg">
<path d="M68.6968 61.7144C68.6968 56.7995 69.1436 51.5495 70.0372 45.9644C71.0426 40.2676 72.5505 34.6825 74.5612 29.2091C76.6835 23.624 79.3644 18.374 82.6037 13.4591C85.9548 8.43249 89.9761 4.13196 94.6675 0.557495L112.931 13.2915C109.803 16.866 107.457 20.2729 105.894 23.5123C104.33 26.7516 103.101 29.991 102.207 33.2304C105.559 33.7889 108.686 34.9618 111.59 36.749C114.495 38.4245 117.008 40.5469 119.13 43.116C121.253 45.5735 122.928 48.4219 124.157 51.6612C125.386 54.7889 126 58.1399 126 61.7144C126 65.624 125.218 69.3102 123.654 72.7729C122.202 76.124 120.136 79.1399 117.455 81.8208C114.886 84.3899 111.87 86.4564 108.407 88.0203C104.944 89.4724 101.314 90.1984 97.516 90.1984C93.4947 90.1984 89.6968 89.4724 86.1223 88.0203C82.6596 86.4564 79.5878 84.3899 76.9069 81.8208C74.3378 79.1399 72.3271 76.124 70.875 72.7729C69.4229 69.3102 68.6968 65.624 68.6968 61.7144ZM0 61.7144C0 56.7995 0.446808 51.5495 1.34043 45.9644C2.34574 40.2676 3.85372 34.6825 5.86436 29.2091C7.9867 23.624 10.7234 18.374 14.0745 13.4591C17.4255 8.43249 21.4468 4.13196 26.1383 0.557495L44.234 13.2915C41.1064 16.866 38.7606 20.2729 37.1968 23.5123C35.7447 26.7516 34.5718 29.991 33.6782 33.2304C37.0293 33.7889 40.1569 34.9618 43.0612 36.749C45.9654 38.4245 48.4229 40.5469 50.4335 43.116C52.5559 45.5735 54.2314 48.4219 55.4601 51.6612C56.6888 54.7889 57.3032 58.1399 57.3032 61.7144C57.3032 65.624 56.5213 69.3102 54.9574 72.7729C53.5053 76.124 51.4388 79.1399 48.758 81.8208C46.1888 84.3899 43.1729 86.4564 39.7101 88.0203C36.2473 89.4724 32.617 90.1984 28.8191 90.1984C24.7979 90.1984 21 89.4724 17.4255 88.0203C13.9628 86.4564 10.9468 84.3899 8.37766 81.8208C5.80851 79.1399 3.74202 76.124 2.17819 72.7729C0.726063 69.3102 0 65.624 0 61.7144Z" fill="#FF8383"/>
</svg>
