<svg width="122" height="145" viewBox="0 0 122 145" fill="none" xmlns="http://www.w3.org/2000/svg">
<path fill-rule="evenodd" clip-rule="evenodd" d="M44.7236 98.934L40.2852 127.562C39.9893 128.893 39.2496 130.151 38.066 131.334C37.0304 132.37 35.6249 132.888 33.8496 132.888C32.0742 132.888 30.5947 132.296 29.4112 131.112C28.2276 129.929 27.6358 128.819 27.6358 127.784C27.6358 126.885 28.4895 121.12 30.1968 110.489C30.7371 107.125 31.3629 103.273 32.0742 98.934H17.8713C16.2439 98.934 14.7645 98.3422 13.433 97.1586C12.2494 95.8271 11.6576 94.2737 11.6576 92.4983C11.6576 90.8709 12.2494 89.4654 13.433 88.2819C14.6165 86.9503 16.096 86.2846 17.8713 86.2846H33.8496L38.288 58.5446H24.307C22.6796 58.5446 21.2001 57.9528 19.8686 56.7693C18.5371 55.4377 17.8713 53.8843 17.8713 52.1089C17.8713 50.4815 18.4631 49.076 19.6467 47.8925C20.9782 46.5609 22.5317 45.8952 24.307 45.8952H40.2852L44.7236 17.0456C45.0195 15.7141 45.7593 14.5305 46.9428 13.4949C48.1264 12.4593 49.6059 11.9415 51.3812 11.9415C53.1566 11.9415 54.6361 12.6072 55.8196 13.9387C57.0032 15.1223 57.595 16.2319 57.595 17.2675C57.595 18.1552 57.521 18.821 57.3731 19.2648C57.3731 19.5607 57.2251 20.5963 56.9292 22.3717C56.7813 24.1471 56.4114 26.8841 55.8196 30.5827L53.1566 45.8952H76.2362L80.8966 17.0456C81.1924 15.7141 81.8582 14.5305 82.8938 13.4949C84.0774 12.4593 85.5569 11.9415 87.3322 11.9415C89.1076 11.9415 90.5871 12.6072 91.7706 13.9387C92.9542 15.1223 93.546 16.2319 93.546 17.2675C93.546 18.1552 93.472 18.821 93.3241 19.2648C93.3241 19.5607 93.1761 20.5963 92.8802 22.3717C92.7323 24.1471 92.2884 26.8841 91.5487 30.5827L89.1076 45.8952H103.089C104.716 45.8952 106.195 46.5609 107.527 47.8925C108.858 49.076 109.524 50.4815 109.524 52.1089C109.524 53.7364 108.858 55.2158 107.527 56.5473C106.343 57.8789 104.864 58.5446 103.089 58.5446H87.1103L82.6719 86.2846H96.8748C98.5022 86.2846 99.9077 86.8764 101.091 88.0599C102.423 89.2435 103.089 90.723 103.089 92.4983C103.089 94.1257 102.423 95.6052 101.091 96.9367C99.9077 98.2682 98.5022 98.934 96.8748 98.934H80.8966L76.2362 127.562C75.9403 128.893 75.2006 130.151 74.017 131.334C72.9814 132.37 71.6499 132.888 70.0225 132.888C68.3951 132.888 66.9156 132.296 65.5841 131.112C64.2526 129.929 63.5868 128.819 63.5868 127.784C63.5868 126.885 64.3978 121.12 66.0197 110.489C66.533 107.125 67.1276 103.273 67.8033 98.934H44.7236ZM51.1593 58.5446L46.9428 86.2846H70.0225L74.239 58.5446H51.1593ZM52.0519 127.086C52.0392 127.33 52.0319 127.564 52.0319 127.784C52.0319 133.851 55.796 137.872 57.9075 139.749C61.1376 142.62 65.2883 144.443 70.0225 144.443C74.3412 144.443 78.7346 142.958 82.1876 139.505C84.571 137.121 86.6453 133.986 87.516 130.068L87.5878 129.745L90.7225 110.489H96.8748C102.009 110.489 106.366 108.263 109.494 104.871C112.503 101.762 114.643 97.5457 114.643 92.4983C114.643 87.5234 112.649 82.9985 109.02 79.6519C105.77 76.5176 101.546 74.7297 96.8748 74.7297H96.2225L96.9634 70.0995H103.089C108.06 70.0995 112.582 68.1076 115.928 64.4833C118.938 61.3743 121.079 57.1573 121.079 52.1089C121.079 46.9749 118.853 42.6179 115.461 39.4895C112.352 36.4811 108.136 34.3403 103.089 34.3403H102.65L102.924 32.6233C103.604 29.2066 104.118 26.1985 104.349 23.8443C104.471 23.0991 104.574 22.4429 104.652 21.8976C104.654 21.8807 104.657 21.8604 104.661 21.8371C104.681 21.6995 104.716 21.4536 104.753 21.1436C105.066 19.5712 105.101 18.1644 105.101 17.2675C105.101 11.9345 102.227 8.11797 100.165 5.99558C96.8201 2.37581 92.3006 0.386597 87.3322 0.386597C83.1436 0.386597 78.8479 1.68132 75.2849 4.79898L74.9954 5.05233L74.7233 5.32438C72.2534 7.79432 70.4249 10.9029 69.6168 14.539L69.5435 14.8691L69.1498 17.306C69.1498 17.2931 69.1498 17.2803 69.1498 17.2675C69.1498 11.9345 66.2765 8.11798 64.2143 5.99559C60.8691 2.37581 56.3496 0.386597 51.3812 0.386597C47.1926 0.386597 42.8969 1.68132 39.3339 4.79898C36.5933 7.19704 34.3524 10.4509 33.4439 14.539L33.3611 14.9115L30.3721 34.3403H24.307C19.2668 34.3403 14.8288 36.3693 11.4762 39.7219C8.1948 43.0033 6.31647 47.3206 6.31647 52.1089C6.31647 57.1492 8.3455 61.5872 11.6981 64.9398L11.9382 65.1799L12.192 65.4055C15.4222 68.2767 19.5728 70.0995 24.307 70.0995H24.7373L23.9965 74.7297H17.8713C12.8964 74.7297 8.37146 76.7242 5.02493 80.3532C1.89057 83.6035 0.102722 87.8267 0.102722 92.4983C0.102722 97.1145 1.74025 101.397 4.79673 104.835L5.2483 105.343L5.75631 105.795C8.98648 108.666 13.1371 110.489 17.8713 110.489H18.4946C18.0368 113.355 17.6468 115.834 17.3249 117.926C16.9516 120.353 16.663 122.303 16.4653 123.747L16.4511 123.849C16.3138 124.85 16.0809 126.548 16.0809 127.784C16.0809 133.313 19.1697 137.212 21.2406 139.283C24.7328 142.775 29.216 144.443 33.8496 144.443C37.9957 144.443 42.5883 143.153 46.2366 139.505C48.62 137.121 50.6943 133.986 51.565 130.068L51.6463 129.702L52.0519 127.086Z" fill="#FFE7EC"/>
</svg>
