<svg width="122" height="110" viewBox="0 0 122 110" fill="none" xmlns="http://www.w3.org/2000/svg">
<path d="M31.3381 66.4209L61.558 35.143L91.7778 66.4209C94.9197 69.6728 96.6758 74.0178 96.6758 78.5395V94.0378C96.6758 99.3042 92.4066 103.573 87.1402 103.573C81.8738 103.573 77.6045 99.3042 77.6045 94.0378V89.7144C77.6045 83.2366 74.2184 77.23 68.6762 73.8765C64.3001 71.2286 58.8159 71.2286 54.4398 73.8765L54.3284 73.9438C48.9017 77.2274 45.4896 83.0194 45.2478 89.3576L45.0471 94.6213C44.8565 99.6197 40.749 103.573 35.747 103.573C30.6069 103.573 26.4401 99.4067 26.4401 94.2666V78.5395C26.4401 74.0178 28.1962 69.6728 31.3381 66.4209Z" stroke="#FFE7EC" stroke-width="11.6273"/>
<path d="M57.4299 4.09378C59.7098 1.83287 63.3909 1.84834 65.6517 4.12833L79.4198 18.0131C82.2583 20.8757 87.1402 18.8656 87.1402 14.8343V14.8343C87.1402 12.3409 89.1615 10.3196 91.6549 10.3196H92.7683C95.8766 10.3196 98.3964 12.8394 98.3964 15.9477V31.7329C98.3964 33.2235 98.9689 34.6572 99.9957 35.7377L117.891 54.5696C120.046 56.8366 119.748 60.4736 117.254 62.3602V62.3602C115.225 63.8947 112.387 63.7509 110.524 62.0192L65.5601 20.2308C63.3108 18.1403 59.8236 18.1597 57.5976 20.275L11.5015 64.0798C9.68201 65.8088 6.87831 65.9665 4.87645 64.4523V64.4523C2.38766 62.5699 2.14335 58.9196 4.35909 56.7223L57.4299 4.09378Z" fill="#FFE7EC"/>
</svg>
