<svg width="121" height="114" viewBox="0 0 121 114" fill="none" xmlns="http://www.w3.org/2000/svg">
<rect x="6.06259" y="6.09384" width="108.619" height="101.516" rx="39.4068" fill="#FFE7EC" stroke="#FFE7EC" stroke-width="12.1252"/>
<path d="M67.3043 54.1736V52.9853L67.6014 42.588C67.6014 32.5867 65.1258 27.5861 60.1747 27.5861C57.8972 27.5861 56.3623 29.0219 55.5702 31.8936L55.8672 54.1736H37.152C34.2804 54.6687 32.8445 56.0055 32.8445 58.184C32.8445 59.7684 33.4387 61.3032 34.6269 62.7886C35.8152 64.1749 37.251 65.1156 38.9344 65.6107H56.0158C56.1148 66.3038 56.1643 67.4426 56.1643 69.027C56.1643 69.027 56.1643 71.4035 56.1643 76.1566C56.1643 76.4536 56.1643 76.8002 56.1643 77.1963C56.1643 88.0888 58.5408 93.535 63.2939 93.535C66.3636 93.535 67.8984 91.8021 67.8984 88.3363C67.8984 78.236 67.7499 70.6608 67.4528 65.6107H87.5049C90.7726 65.6107 92.4065 64.2739 92.4065 61.6003C92.4065 60.0159 91.7628 58.4316 90.4755 56.8472C89.0892 55.2629 87.5049 54.3717 85.7225 54.1736H67.3043Z" fill="#F0ACB9"/>
</svg>
