<svg width="120" height="120" viewBox="0 0 120 120" fill="none" xmlns="http://www.w3.org/2000/svg">
<circle cx="59.5027" cy="59.5027" r="54.7411" stroke="#FFE7EC" stroke-width="9.52312"/>
<circle cx="58.4886" cy="39.5549" r="21.6657" stroke="#FFE7EC" stroke-width="9.52312"/>
<mask id="path-3-outside-1" maskUnits="userSpaceOnUse" x="20.3151" y="57.7294" width="79" height="45" fill="black">
<rect fill="white" x="20.3151" y="57.7294" width="79" height="45"/>
<path d="M88.9162 92.5221C88.9162 85.9467 85.8292 79.6406 80.3342 74.991C74.8393 70.3415 67.3866 67.7294 59.6156 67.7294C51.8446 67.7294 44.3919 70.3415 38.897 74.991C33.4021 79.6406 30.3151 85.9467 30.3151 92.5221L59.6156 92.5221H88.9162Z"/>
</mask>
<path d="M88.9162 92.5221C88.9162 85.9467 85.8292 79.6406 80.3342 74.991C74.8393 70.3415 67.3866 67.7294 59.6156 67.7294C51.8446 67.7294 44.3919 70.3415 38.897 74.991C33.4021 79.6406 30.3151 85.9467 30.3151 92.5221L59.6156 92.5221H88.9162Z" stroke="#FFE7EC" stroke-width="19.0462" mask="url(#path-3-outside-1)"/>
</svg>
